<?xml version="1.0" encoding="UTF-8" standalone="no"?>
<svg
   width="100"
   height="100"
   viewBox="0 0 100 100"
   fill="none"
   version="1.1"
   id="svg16"
   sodipodi:docname="development.svg"
   inkscape:version="1.3 (0e150ed6c4, 2023-07-21)"
   xmlns:inkscape="http://www.inkscape.org/namespaces/inkscape"
   xmlns:sodipodi="http://sodipodi.sourceforge.net/DTD/sodipodi-0.dtd"
   xmlns="http://www.w3.org/2000/svg"
   xmlns:svg="http://www.w3.org/2000/svg">
  <defs
     id="defs16">
    <inkscape:path-effect
       effect="fillet_chamfer"
       id="path-effect4"
       is_visible="true"
       lpeversion="1"
       nodesatellites_param="F,0,1,1,0,49.28371,0,1 @ F,0,0,1,0,0,0,1 @ F,0,0,1,0,49.28371,0,1 @ F,0,0,1,0,0,0,1"
       radius="0"
       unit="px"
       method="auto"
       mode="F"
       chamfer_steps="1"
       flexible="false"
       use_knot_distance="true"
       apply_no_radius="true"
       apply_with_radius="true"
       only_selected="false"
       hide_knots="false" />
  </defs>
  <sodipodi:namedview
     id="namedview16"
     pagecolor="#ffffff"
     bordercolor="#999999"
     borderopacity="1"
     inkscape:showpageshadow="2"
     inkscape:pageopacity="0"
     inkscape:pagecheckerboard="0"
     inkscape:deskcolor="#d1d1d1"
     inkscape:zoom="5.625287"
     inkscape:cx="-4.8886395"
     inkscape:cy="40.975687"
     inkscape:window-width="1920"
     inkscape:window-height="1129"
     inkscape:window-x="-8"
     inkscape:window-y="-8"
     inkscape:window-maximized="1"
     inkscape:current-layer="svg16" />
  <path
     id="rect1"
     d="M 49.28371,0 H 100 V 50.71629 A 49.28371,49.28371 135 0 1 50.71629,100 H 0 V 49.28371 A 49.28371,49.28371 135 0 1 49.28371,0 Z"
     style="fill:#e8f5e9;fill-opacity:1;stroke:none;stroke-width:12.4082;stroke-linecap:round;stroke-linejoin:round"
     inkscape:path-effect="#path-effect4"
     inkscape:original-d="M 0,0 H 100 V 100 H 0 Z" />
  <g
     id="g16"
     transform="matrix(1.6081296,0,0,1.6081296,1.1003154,1.0395655)">
    <path
       d="m 31.4024,22.1793 c -0.364,0 -0.66,-0.2955 -0.66,-0.66 v -1.1215 c 0,-0.364 0.2955,-0.6599 0.66,-0.6599 0.364,0 0.6599,0.2954 0.6599,0.6599 v 1.1215 c 0,0.3645 -0.2959,0.66 -0.6599,0.66 z"
       fill="#103e13"
       id="path1" />
    <path
       d="m 28.6277,22.1793 c -0.364,0 -0.6599,-0.2955 -0.6599,-0.66 v -1.1215 c 0,-0.364 0.2954,-0.6599 0.6599,-0.6599 0.364,0 0.66,0.2954 0.66,0.6599 v 1.1215 c -5e-4,0.3645 -0.2955,0.66 -0.66,0.66 z"
       fill="#103e13"
       id="path2" />
    <path
       d="m 25.8533,22.1793 c -0.364,0 -0.6599,-0.2955 -0.6599,-0.66 v -1.1215 c 0,-0.364 0.2954,-0.6599 0.6599,-0.6599 0.364,0 0.66,0.2954 0.66,0.6599 v 1.1215 c 0,0.3645 -0.2955,0.66 -0.66,0.66 z"
       fill="#103e13"
       id="path3" />
    <path
       d="m 31.4024,26.7657 c -0.364,0 -0.66,-0.2955 -0.66,-0.66 v -1.1211 c 0,-0.364 0.2955,-0.6599 0.66,-0.6599 0.364,0 0.6599,0.2954 0.6599,0.6599 v 1.1211 c 0,0.3645 -0.2959,0.66 -0.6599,0.66 z"
       fill="#103e13"
       id="path4" />
    <path
       d="m 28.6277,26.7657 c -0.364,0 -0.6599,-0.2955 -0.6599,-0.66 v -1.1211 c 0,-0.364 0.2954,-0.6599 0.6599,-0.6599 0.364,0 0.66,0.2954 0.66,0.6599 v 1.1211 c -5e-4,0.3645 -0.2955,0.66 -0.66,0.66 z"
       fill="#103e13"
       id="path5" />
    <path
       d="m 25.8533,26.7657 c -0.364,0 -0.6599,-0.2955 -0.6599,-0.66 v -1.1211 c 0,-0.364 0.2954,-0.6599 0.6599,-0.6599 0.364,0 0.66,0.2954 0.66,0.6599 v 1.1211 c 0,0.3645 -0.2955,0.66 -0.66,0.66 z"
       fill="#103e13"
       id="path6" />
    <path
       d="m 31.4024,31.3522 c -0.364,0 -0.66,-0.2955 -0.66,-0.66 v -1.1215 c 0,-0.364 0.2955,-0.66 0.66,-0.66 0.364,0 0.6599,0.2955 0.6599,0.66 v 1.1215 c 0,0.3645 -0.2959,0.66 -0.6599,0.66 z"
       fill="#103e13"
       id="path7" />
    <path
       d="m 28.6277,31.3522 c -0.364,0 -0.6599,-0.2955 -0.6599,-0.66 v -1.1215 c 0,-0.364 0.2954,-0.66 0.6599,-0.66 0.364,0 0.66,0.2955 0.66,0.66 v 1.1215 c -5e-4,0.3645 -0.2955,0.66 -0.66,0.66 z"
       fill="#103e13"
       id="path8" />
    <path
       d="m 25.8533,31.3522 c -0.364,0 -0.6599,-0.2955 -0.6599,-0.66 v -1.1215 c 0,-0.364 0.2954,-0.66 0.6599,-0.66 0.364,0 0.66,0.2955 0.66,0.66 v 1.1215 c 0,0.3645 -0.2955,0.66 -0.66,0.66 z"
       fill="#103e13"
       id="path9" />
    <path
       d="m 31.4024,35.9377 c -0.364,0 -0.66,-0.2955 -0.66,-0.66 v -1.1215 c 0,-0.3641 0.2955,-0.66 0.66,-0.66 0.364,0 0.6599,0.2955 0.6599,0.66 v 1.1215 c 0,0.3645 -0.2959,0.66 -0.6599,0.66 z"
       fill="#103e13"
       id="path10" />
    <path
       d="m 28.6277,35.9377 c -0.364,0 -0.6599,-0.2955 -0.6599,-0.66 v -1.1215 c 0,-0.3641 0.2954,-0.66 0.6599,-0.66 0.364,0 0.66,0.2955 0.66,0.66 v 1.1215 c -5e-4,0.3645 -0.2955,0.66 -0.66,0.66 z"
       fill="#103e13"
       id="path11" />
    <path
       d="m 25.8533,35.9377 c -0.364,0 -0.6599,-0.2955 -0.6599,-0.66 v -1.1215 c 0,-0.3641 0.2954,-0.66 0.6599,-0.66 0.364,0 0.66,0.2955 0.66,0.66 v 1.1215 c 0,0.3645 -0.2955,0.66 -0.66,0.66 z"
       fill="#103e13"
       id="path12" />
    <path
       d="m 31.4024,40.5241 c -0.364,0 -0.66,-0.2955 -0.66,-0.66 V 38.743 c 0,-0.364 0.2955,-0.6599 0.66,-0.6599 0.364,0 0.6599,0.2954 0.6599,0.6599 v 1.1211 c 0,0.364 -0.2959,0.66 -0.6599,0.66 z"
       fill="#103e13"
       id="path13" />
    <path
       d="m 28.6277,40.5241 c -0.364,0 -0.6599,-0.2955 -0.6599,-0.66 V 38.743 c 0,-0.364 0.2954,-0.6599 0.6599,-0.6599 0.364,0 0.66,0.2954 0.66,0.6599 v 1.1211 c -5e-4,0.364 -0.2955,0.66 -0.66,0.66 z"
       fill="#103e13"
       id="path14" />
    <path
       d="m 25.8533,40.5241 c -0.364,0 -0.6599,-0.2955 -0.6599,-0.66 l 4e-4,-1.1211 c 0,-0.364 0.2955,-0.6599 0.66,-0.6599 0.364,0 0.6599,0.2954 0.6599,0.6599 v 1.1211 c -4e-4,0.364 -0.2959,0.66 -0.6604,0.66 z"
       fill="#103e13"
       id="path15" />
    <path
       d="m 7.00055,45.0883 c 0,0.364 0.29546,0.66 0.65996,0.66 H 47.8495 c 0.3641,0 0.66,-0.2955 0.66,-0.66 0,-0.364 -0.2955,-0.6599 -0.66,-0.6599 H 46.6296 V 25.4802 c 0,-0.364 -0.2955,-0.66 -0.66,-0.66 l -10.775,5e-4 V 11.1601 c 0,-0.2311 -0.1206,-0.4446 -0.3175,-0.5643 -0.1965,-0.1201 -0.4423,-0.1274 -0.6466,-0.0211 l -12.2504,6.3781 c -0.2186,0.1137 -0.3549,0.3392 -0.3549,0.5854 V 29.4705 H 9.76952 c -0.36402,0 -0.65995,0.2955 -0.65995,0.66 v 14.298 H 7.65903 C 7.29501,44.428 7,44.7235 7,45.088 Z M 35.1949,34.8159 h 10.1154 v 9.613 l -10.1154,-4e-4 z m 0,-4.586 h 10.1154 v 3.2666 l -10.1154,-4e-4 z m 0,-4.09 h 10.1154 v 2.771 H 35.1949 Z m -12.2504,-8.201 10.93,-5.691 v 32.18 h -10.93 z m -9.2526,21.2185 c 0,-1.3696 1.0851,-2.4842 2.4193,-2.4842 1.3341,0 2.4198,1.1141 2.4198,2.4842 v 5.2713 H 13.6919 Z M 10.4294,30.7902 H 21.625 v 13.6382 h -1.7741 v -5.2712 c 0,-2.0973 -1.677,-3.8037 -3.7397,-3.8037 -2.0618,0 -3.7388,1.706 -3.7388,3.8037 v 5.2712 h -1.943 z"
       fill="#103e13"
       id="path16" />
  </g>
</svg>
