<?xml version="1.0" encoding="UTF-8" standalone="no"?>
<!-- Created with Inkscape (http://www.inkscape.org/) -->

<svg
   width="100"
   height="100"
   viewBox="0 0 26.458333 26.458333"
   version="1.1"
   id="svg1"
   inkscape:version="1.3 (0e150ed6c4, 2023-07-21)"
   sodipodi:docname="file.svg"
   xmlns:inkscape="http://www.inkscape.org/namespaces/inkscape"
   xmlns:sodipodi="http://sodipodi.sourceforge.net/DTD/sodipodi-0.dtd"
   xmlns="http://www.w3.org/2000/svg"
   xmlns:svg="http://www.w3.org/2000/svg">
  <sodipodi:namedview
     id="namedview1"
     pagecolor="#ffffff"
     bordercolor="#999999"
     borderopacity="1"
     inkscape:showpageshadow="2"
     inkscape:pageopacity="0"
     inkscape:pagecheckerboard="true"
     inkscape:deskcolor="#d1d1d1"
     inkscape:document-units="mm"
     inkscape:zoom="5.7487781"
     inkscape:cx="39.051777"
     inkscape:cy="61.317378"
     inkscape:window-width="1920"
     inkscape:window-height="1009"
     inkscape:window-x="1912"
     inkscape:window-y="-8"
     inkscape:window-maximized="1"
     inkscape:current-layer="layer1" />
  <defs
     id="defs1">
    <rect
       x="13.116774"
       y="14.497487"
       width="70.761543"
       height="76.456984"
       id="rect1" />
  </defs>
  <g
     inkscape:label="Layer 1"
     inkscape:groupmode="layer"
     id="layer1">
    <path
       id="rect6"
       style="fill:#000000;stroke:#000000;stroke-width:3.029;stroke-linecap:round;stroke-linejoin:round;stroke-dasharray:none"
       d="m 17.196701,6.4851794 c -2.21709,0.00594 -4.821353,2.5381628 -4.759847,4.7241756 -0.624754,-1.065265 -2.1112,-1.2576755 -3.3181341,-1.2576487 -1.90474,-3e-5 -3.2397229,1.1223237 -3.2396819,3.0872127 3.077e-4,0.341216 0.1143356,0.899807 0.2083391,1.226953 -0.3476985,-0.120486 1.0657835,1.50105 -2.248055,0.610106 -1.2645427,-1.9e-5 -2.2308012,1.124889 -2.283553,2.127599 -0.091287,2.881215 2.4954672,2.960349 4.6673707,2.979301 10.7752572,-0.04392 14.5625032,0.07946 16.4027782,-0.06016 3.25822,-0.247174 2.878315,-5.32065 -0.230375,-5.135741 -0.613029,0.002 -1.207241,0.217351 -1.685499,0.610665 0.594117,-0.821106 1.071675,-1.228301 1.266927,-3.539403 0.292643,-3.9471694 -2.014296,-5.3958551 -4.619186,-5.3960124 z"
       sodipodi:nodetypes="ccccccscsccccc" />
  </g>
</svg>
