<?xml version="1.0" encoding="UTF-8" standalone="no"?>
<!-- Created with Inkscape (http://www.inkscape.org/) -->

<svg
   width="32"
   height="32"
   viewBox="0 0 32 32"
   version="1.1"
   id="svg1"
   inkscape:version="1.3 (0e150ed6c4, 2023-07-21)"
   sodipodi:docname="password_eye_cross.svg"
   inkscape:export-filename="password_eye_cross.png"
   inkscape:export-xdpi="96"
   inkscape:export-ydpi="96"
   xmlns:inkscape="http://www.inkscape.org/namespaces/inkscape"
   xmlns:sodipodi="http://sodipodi.sourceforge.net/DTD/sodipodi-0.dtd"
   xmlns="http://www.w3.org/2000/svg"
   xmlns:svg="http://www.w3.org/2000/svg">
  <sodipodi:namedview
     id="namedview1"
     pagecolor="#ffffff"
     bordercolor="#999999"
     borderopacity="1"
     inkscape:showpageshadow="2"
     inkscape:pageopacity="0"
     inkscape:pagecheckerboard="true"
     inkscape:deskcolor="#d1d1d1"
     inkscape:document-units="px"
     showguides="true"
     inkscape:zoom="27.84375"
     inkscape:cx="15.173962"
     inkscape:cy="16.071829"
     inkscape:window-width="1920"
     inkscape:window-height="1129"
     inkscape:window-x="-8"
     inkscape:window-y="-8"
     inkscape:window-maximized="1"
     inkscape:current-layer="layer1" />
  <defs
     id="defs1">
    <inkscape:path-effect
       effect="bspline"
       id="path-effect2"
       is_visible="true"
       lpeversion="1.3"
       weight="33.333333"
       steps="2"
       helper_size="0"
       apply_no_weight="true"
       apply_with_weight="true"
       only_selected="false"
       uniform="false" />
    <inkscape:path-effect
       effect="bspline"
       id="path-effect2-3"
       is_visible="true"
       lpeversion="1.3"
       weight="33.333333"
       steps="2"
       helper_size="0"
       apply_no_weight="true"
       apply_with_weight="true"
       only_selected="false"
       uniform="false" />
  </defs>
  <g
     inkscape:label="Layer 1"
     inkscape:groupmode="layer"
     id="layer1">
    <g
       id="g25"
       style="display:none">
      <path
         style="fill:none;stroke:#ffdd55;stroke-width:1.50152;stroke-linecap:round"
         d="M 2.1238983,15.987344 C 6.7816553,12.43193 11.439413,8.8765158 16.120715,8.8944893 c 4.681302,0.017972 9.29197,3.5374407 13.949727,7.0928547"
         id="path2-2" />
      <path
         style="fill:none;stroke:#ffdd55;stroke-width:1.50152;stroke-linecap:round"
         d="m 2.0672583,15.999159 c 4.657757,3.555415 9.3155147,7.110829 13.9968167,7.092856 4.681302,-0.01797 9.29197,-3.537441 13.949727,-7.092856"
         id="path2-9-8" />
    </g>
    <path
       id="path2"
       style="fill:none;stroke:#000000;stroke-width:1.50152;stroke-linecap:round"
       d="m 12.676806,9.4744992 c 2.029708,-0.6781443 3.130035,-0.7018629 4.948026,-0.471425 3.977544,0.50417 7.783558,3.3937858 12.44131,6.9491958"
       sodipodi:nodetypes="csc" />
    <path
       id="path28"
       style="fill:none;stroke:#000000;stroke-width:1.502;stroke-linecap:round;stroke-dasharray:none;paint-order:normal"
       d="m 2.1555129,15.988185 c 2.4024278,-1.833849 5.334285,-3.972719 7.7399437,-5.316224"
       sodipodi:nodetypes="cc" />
    <path
       id="path2-9"
       style="fill:none;stroke:#000000;stroke-width:1.44142;stroke-linecap:round"
       d="m 22.412952,21.207262 c 2.294838,-1.193591 5.41324,-3.507644 7.608754,-5.183551"
       sodipodi:nodetypes="cc" />
    <path
       id="path26"
       style="fill:none;stroke:#000000;stroke-width:1.50557;stroke-linecap:round"
       d="m 2.1727307,16.002029 c 4.5502982,3.659064 8.1668273,6.240694 12.4168953,6.976405 1.661265,0.208989 3.093388,0.07428 4.886471,-0.47339"
       sodipodi:nodetypes="ccc" />
    <path
       style="fill:#000000;stroke:#000000;stroke-width:1.586;stroke-linecap:round;stroke-linejoin:miter;stroke-dasharray:none"
       d="M 7.2098253,3.6231129 26.118185,26.875375"
       id="path27"
       sodipodi:nodetypes="cc" />
    <path
       id="path3"
       style="stroke:#000000;stroke-width:0;stroke-linecap:round;stroke-dasharray:none"
       d="m 16.630166,11.778013 a 4.2691278,4.2691267 8.4891914 0 0 -2.668978,0.483646 l 5.333805,6.439656 a 4.2691278,4.2691267 8.4891914 0 0 0.926994,-2.071149 4.2691278,4.2691267 8.4891914 0 0 -3.591821,-4.852153 z m -3.925159,1.520672 a 4.2691278,4.2691267 8.4891914 0 0 -0.926994,2.071149 4.2691278,4.2691267 8.4891914 0 0 3.591821,4.852153 4.2691278,4.2691267 8.4891914 0 0 2.668978,-0.483646 z" />
  </g>
  <g
     inkscape:groupmode="layer"
     id="layer2"
     inkscape:label="Layer 2" />
</svg>
