<?xml version="1.0" encoding="UTF-8" standalone="no"?>
<svg
   width="100"
   height="100"
   viewBox="0 0 100 100"
   fill="none"
   version="1.1"
   id="svg1"
   sodipodi:docname="accessibility.svg"
   inkscape:version="1.3 (0e150ed6c4, 2023-07-21)"
   xmlns:inkscape="http://www.inkscape.org/namespaces/inkscape"
   xmlns:sodipodi="http://sodipodi.sourceforge.net/DTD/sodipodi-0.dtd"
   xmlns="http://www.w3.org/2000/svg"
   xmlns:svg="http://www.w3.org/2000/svg">
  <defs
     id="defs1">
    <inkscape:path-effect
       effect="fillet_chamfer"
       id="path-effect4"
       is_visible="true"
       lpeversion="1"
       nodesatellites_param="F,0,1,1,0,49.28371,0,1 @ F,0,0,1,0,0,0,1 @ F,0,0,1,0,49.28371,0,1 @ F,0,0,1,0,0,0,1"
       radius="0"
       unit="px"
       method="auto"
       mode="F"
       chamfer_steps="1"
       flexible="false"
       use_knot_distance="true"
       apply_no_radius="true"
       apply_with_radius="true"
       only_selected="false"
       hide_knots="false" />
    <inkscape:path-effect
       effect="fillet_chamfer"
       id="path-effect3"
       is_visible="true"
       lpeversion="1"
       nodesatellites_param="F,0,0,1,0,0,0,1 @ F,0,0,1,0,0,0,1 @ F,0,0,1,0,0,0,1 @ F,0,0,1,0,0,0,1"
       radius="0"
       unit="px"
       method="auto"
       mode="F"
       chamfer_steps="1"
       flexible="false"
       use_knot_distance="true"
       apply_no_radius="true"
       apply_with_radius="true"
       only_selected="false"
       hide_knots="false" />
    <inkscape:path-effect
       effect="fillet_chamfer"
       id="path-effect2"
       is_visible="true"
       lpeversion="1"
       nodesatellites_param="F,0,0,1,0,0,0,1 @ F,0,0,1,0,0,0,1 @ F,0,0,1,0,0,0,1 @ F,0,0,1,0,0,0,1"
       radius="0"
       unit="px"
       method="auto"
       mode="F"
       chamfer_steps="1"
       flexible="false"
       use_knot_distance="true"
       apply_no_radius="true"
       apply_with_radius="true"
       only_selected="false"
       hide_knots="false" />
    <inkscape:path-effect
       effect="fillet_chamfer"
       id="path-effect1"
       is_visible="true"
       lpeversion="1"
       nodesatellites_param="F,0,0,1,0,0,0,1 @ F,0,0,1,0,0,0,1 @ F,0,0,1,0,0,0,1 @ F,0,0,1,0,0,0,1"
       radius="0"
       unit="px"
       method="auto"
       mode="F"
       chamfer_steps="1"
       flexible="false"
       use_knot_distance="true"
       apply_no_radius="true"
       apply_with_radius="true"
       only_selected="false"
       hide_knots="false" />
  </defs>
  <sodipodi:namedview
     id="namedview1"
     pagecolor="#ffffff"
     bordercolor="#999999"
     borderopacity="1"
     inkscape:showpageshadow="2"
     inkscape:pageopacity="0"
     inkscape:pagecheckerboard="0"
     inkscape:deskcolor="#d1d1d1"
     inkscape:zoom="7.0003571"
     inkscape:cx="43.354931"
     inkscape:cy="50.211724"
     inkscape:window-width="1920"
     inkscape:window-height="1129"
     inkscape:window-x="-8"
     inkscape:window-y="-8"
     inkscape:window-maximized="1"
     inkscape:current-layer="svg1" />
  <path
     id="rect1"
     d="M 49.28371,0 H 100 V 50.71629 A 49.28371,49.28371 135 0 1 50.71629,100 H 0 V 49.28371 A 49.28371,49.28371 135 0 1 49.28371,0 Z"
     style="fill:#e8f5e9;fill-opacity:1;stroke:none;stroke-width:12.4082;stroke-linecap:round;stroke-linejoin:round"
     inkscape:path-effect="#path-effect4"
     inkscape:original-d="M 0,0 H 100 V 100 H 0 Z" />
  <path
     d="m 48.003912,27.075586 c -5.420676,0 -9.833799,4.453275 -9.833799,9.897104 0,3.44378 1.76852,6.484573 4.438867,8.256978 -3.225205,1.078468 -6.01601,3.094059 -8.063012,5.730892 -1.131735,-0.870579 -2.396236,-1.570507 -3.759338,-2.072259 2.067078,-1.534563 3.418037,-3.999773 3.418037,-6.770503 0,-4.617127 -3.734081,-8.396703 -8.323215,-8.396703 -4.589035,0 -8.323165,3.779576 -8.323165,8.396703 0,2.772187 1.351979,5.238692 3.420887,6.773255 -5.477424,2.021259 -9.389324,7.313217 -9.389324,13.541003 v 4.374751 c 5.6e-4,0.33353 0.133962,0.653136 0.370499,0.887903 0.236537,0.235413 0.556596,0.366558 0.890095,0.365425 h 19.19356 c 0.04663,0.0052 0.0931,0.0079 0.139566,0.0073 h 31.641656 c 0.04662,6.47e-4 0.09358,-0.0021 0.139564,-0.0073 h 19.19515 c 0.68989,-0.0028 1.248796,-0.56263 1.250414,-1.253328 v -4.374751 c 0,-6.227786 -3.905056,-11.519744 -9.379647,-13.541489 2.068858,-1.534077 3.42079,-4.001067 3.42079,-6.773415 0,-4.616966 -3.734081,-8.396543 -8.323036,-8.396543 -4.588954,0 -8.323197,3.779577 -8.323197,8.396543 0,2.770729 1.351445,5.236423 3.418524,6.770663 -1.366017,0.502724 -2.631004,1.20508 -3.76436,2.077764 -2.045867,-2.638451 -4.832787,-4.656795 -8.057992,-5.735911 2.669699,-1.772405 4.438867,-4.813198 4.438867,-8.256978 0,-5.443829 -4.41539,-9.897104 -9.836066,-9.897104 z m 0,2.511029 c 4.054173,0 7.322607,3.290293 7.322607,7.386075 0,4.063726 -3.217433,7.32196 -7.226758,7.374256 -0.03189,0 -0.06331,-0.0046 -0.09586,-0.0046 -0.03254,0 -0.06331,0.0046 -0.09584,0.0046 -4.009324,-0.05164 -7.224653,-3.310369 -7.224653,-7.374256 0,-4.096269 3.265681,-7.386075 7.320017,-7.386075 z m -22.122316,6.645509 c 3.216818,0 5.81204,2.610926 5.81204,5.885512 0,3.25273 -2.561707,5.852323 -5.748183,5.887619 -0.02129,0 -0.04203,-0.0023 -0.06389,-0.0023 -0.02131,0 -0.04205,0.0023 -0.0639,0.0023 -3.18654,-0.0353 -5.748181,-2.635536 -5.748181,-5.887619 0,-3.274586 2.595205,-5.885512 5.812037,-5.885512 z m 44.246055,0 c 3.216787,0 5.812007,2.610926 5.812007,5.885512 0,3.25273 -2.561542,5.852323 -5.748215,5.887619 -0.02121,0 -0.04193,-0.0023 -0.0638,-0.0023 -0.02137,0 -0.04209,0.0023 -0.06396,0.0023 -3.186509,-0.0353 -5.748215,-2.635536 -5.748215,-5.887619 0,-3.274586 2.595219,-5.885512 5.812006,-5.885512 z M 47.907738,46.857976 c 0.03206,4.85e-4 0.06331,0.0045 0.09586,0.0045 0.03206,0 0.06331,-0.0045 0.09586,-0.0045 8.040669,0.05148 14.475536,6.541725 14.475536,14.666424 l -4.86e-4,4.031183 H 33.433984 V 61.5244 c 0,-8.125346 6.433086,-14.614776 14.472621,-14.666424 z M 25.785456,50.51936 c 0.03196,4.86e-4 0.06334,0.0045 0.09584,0.0045 0.03252,0 0.06334,-0.0045 0.09586,-0.0045 2.719567,0.02186 5.201615,0.959466 7.178024,2.528354 -1.414265,2.502285 -2.232061,5.39056 -2.232061,8.477334 v 4.02163 h -16.82315 v -3.114783 c 0,-6.602928 5.191576,-11.861049 11.685198,-11.913183 z m 44.246022,0 c 0.03254,4.86e-4 0.06331,0.0045 0.09586,0.0045 0.03254,0 0.06331,-0.0045 0.09584,-0.0045 6.493639,0.05148 11.685215,5.310255 11.685215,11.913181 v 3.114137 H 65.076774 l -6.49e-4,-4.02163 c 0,-3.085154 -0.815529,-5.971162 -2.227042,-8.472801 1.976896,-1.571155 4.460723,-2.511191 7.182557,-2.532887 z"
     fill="#103e13"
     id="path1"
     style="stroke-width:1.61908" />
</svg>
