<?xml version="1.0" encoding="UTF-8" standalone="no"?>
<svg
   width="100"
   height="100"
   viewBox="0 0 100 100"
   fill="none"
   version="1.1"
   id="svg3"
   sodipodi:docname="accomodation.svg"
   inkscape:version="1.3 (0e150ed6c4, 2023-07-21)"
   xmlns:inkscape="http://www.inkscape.org/namespaces/inkscape"
   xmlns:sodipodi="http://sodipodi.sourceforge.net/DTD/sodipodi-0.dtd"
   xmlns="http://www.w3.org/2000/svg"
   xmlns:svg="http://www.w3.org/2000/svg">
  <defs
     id="defs3">
    <inkscape:path-effect
       effect="fillet_chamfer"
       id="path-effect4"
       is_visible="true"
       lpeversion="1"
       nodesatellites_param="F,0,1,1,0,49.28371,0,1 @ F,0,0,1,0,0,0,1 @ F,0,0,1,0,49.28371,0,1 @ F,0,0,1,0,0,0,1"
       radius="0"
       unit="px"
       method="auto"
       mode="F"
       chamfer_steps="1"
       flexible="false"
       use_knot_distance="true"
       apply_no_radius="true"
       apply_with_radius="true"
       only_selected="false"
       hide_knots="false" />
  </defs>
  <sodipodi:namedview
     id="namedview3"
     pagecolor="#ffffff"
     bordercolor="#999999"
     borderopacity="1"
     inkscape:showpageshadow="2"
     inkscape:pageopacity="0"
     inkscape:pagecheckerboard="0"
     inkscape:deskcolor="#d1d1d1"
     inkscape:zoom="7.9553571"
     inkscape:cx="48.080808"
     inkscape:cy="48.709316"
     inkscape:window-width="1920"
     inkscape:window-height="1129"
     inkscape:window-x="-8"
     inkscape:window-y="-8"
     inkscape:window-maximized="1"
     inkscape:current-layer="svg3" />
  <path
     id="rect1"
     d="M 49.28371,0 H 100 V 50.71629 A 49.28371,49.28371 135 0 1 50.71629,100 H 0 V 49.28371 A 49.28371,49.28371 135 0 1 49.28371,0 Z"
     style="fill:#e8f5e9;fill-opacity:1;stroke:none;stroke-width:12.4082;stroke-linecap:round;stroke-linejoin:round"
     inkscape:path-effect="#path-effect4"
     inkscape:original-d="M 0,0 H 100 V 100 H 0 Z" />
  <g
     id="g3"
     transform="translate(-3.6004302,-2.1803477)">
    <path
       d="m 43.311356,48.064768 c 0.519171,0 1.001022,-0.142818 1.429107,-0.372288 v 0.0061 c 0,0.816633 0.317415,1.583565 0.893308,2.157795 0.575892,0.575892 1.342086,0.893308 2.157795,0.893308 0.526562,0 1.014694,-0.146144 1.447399,-0.381896 0.0436,0.746979 0.342172,1.445366 0.875016,1.978579 0.575893,0.575893 1.342086,0.893308 2.15835,0.893308 1.621441,0 2.9384,-1.274649 3.033181,-2.872442 0.501804,0.271226 1.069013,0.41349 1.654143,0.375799 1.595206,-0.104573 2.844358,-1.482687 2.844358,-3.138309 V 33.881223 l 1.562688,2.707267 c 0.595107,1.035387 1.709386,1.678347 2.908839,1.678347 0.584576,0 1.161947,-0.153349 1.673358,-0.446377 0.636863,-0.369147 1.092293,-0.961853 1.281855,-1.670771 0.190301,-0.709473 0.09183,-1.451463 -0.276399,-2.087402 -3.69e-4,0 -5.112823,-8.853076 -5.424696,-9.396821 -0.03714,-0.08185 -0.142633,-0.318893 -0.232611,-0.521019 -0.08573,-0.193073 -0.159446,-0.391134 -0.230024,-0.590119 -1.54181,-4.352727 -5.359292,-7.056299 -9.96329,-7.056299 -5.978603,0 -10.842741,5.274303 -10.842741,11.757296 l -5.54e-4,16.757786 c 0,0.815709 0.317045,1.581903 0.892383,2.15835 0.575893,0.575892 1.342087,0.893307 2.158719,0.893307 z m 7.792377,-29.945482 c 3.95605,0 7.10914,2.23447 8.435152,5.977124 0.0848,0.237784 0.173119,0.475384 0.276214,0.707071 0.299124,0.670673 0.299124,0.670673 0.383374,0.767302 l 0.01127,-0.0098 c 0.41737,0.78781 1.657469,2.935259 5.340816,9.312755 0.151317,0.261618 0.191594,0.565177 0.114365,0.855802 -0.07815,0.29044 -0.265682,0.535245 -0.525084,0.6849 -0.805547,0.46282 -1.908555,0.164065 -2.367496,-0.635754 L 59.69519,30.451542 c -0.183834,-0.317415 -0.555569,-0.473351 -0.911968,-0.376907 -0.354551,0.09497 -0.600835,0.416445 -0.600835,0.783191 v 16.747255 c 0,0.790212 -0.596215,1.472156 -1.328968,1.520378 -0.422543,0.02236 -0.816633,-0.119354 -1.112616,-0.414783 -0.269193,-0.269193 -0.417554,-0.627809 -0.417554,-1.011183 V 36.746459 c 0,-0.447855 -0.363051,-0.810905 -0.810906,-0.810905 -0.448039,0 -0.81109,0.362496 -0.81109,0.810905 l 5.55e-4,13.442663 c 0,0.78818 -0.641482,1.429477 -1.429662,1.429477 -0.38282,0 -0.74236,-0.148176 -1.012108,-0.417369 -0.269008,-0.269563 -0.417369,-0.629103 -0.417369,-1.012108 V 36.746459 c 0,-0.447855 -0.362681,-0.810905 -0.81109,-0.810905 -0.447855,0 -0.810906,0.362496 -0.810906,0.810905 l 5.55e-4,10.827036 v 0.126006 c 0,0.787625 -0.641482,1.428922 -1.430216,1.428922 -0.382266,0 -0.740882,-0.14873 -1.012108,-0.418847 -0.269193,-0.268639 -0.417369,-0.627256 -0.417369,-1.01063 V 36.745905 c 0,-0.447855 -0.362681,-0.810906 -0.81109,-0.810906 -0.447855,0 -0.810906,0.362497 -0.810906,0.810906 l 9.24e-4,8.267576 c 0,0.788734 -0.641297,1.430216 -1.428923,1.430216 -0.383558,0 -0.74199,-0.148916 -1.011183,-0.417555 -0.270117,-0.270117 -0.417924,-0.629657 -0.417924,-1.012661 l -5.54e-4,-16.757602 c 0,-5.588761 4.136929,-10.136593 9.221854,-10.136593 z"
       fill="#103e13"
       id="path1"
       style="stroke-width:1.84759" />
    <path
       d="M 64.456599,73.753419 53.643283,65.302688 c -1.30459,-1.018596 -1.621785,-2.852536 -0.721271,-4.173877 0.327832,-0.481764 0.787932,-0.840391 1.308731,-1.068951 -0.371147,-0.327411 -0.658721,-0.728329 -0.833113,-1.181871 -0.08932,-0.23229 -0.149996,-0.476582 -0.181163,-0.729054 -0.09945,-0.808969 0.122569,-1.608132 0.624384,-2.250027 0.502719,-0.642639 1.224259,-1.051318 2.032259,-1.1502 0.747592,-0.09228 1.480977,0.101783 2.096894,0.527284 0.08264,-0.494972 0.273622,-0.967662 0.591832,-1.37407 0.502717,-0.642638 1.223741,-1.051118 2.032577,-1.150917 0.807934,-0.09905 1.607097,0.122967 2.250425,0.625419 l 0.0037,0.003 c 0.08509,-0.487596 0.275107,-0.952991 0.588235,-1.35408 0.50252,-0.643156 1.223888,-1.051769 2.032923,-1.151049 0.80865,-0.09874 1.607813,0.123284 2.250226,0.624902 L 80.923247,61.81756 c 2.463647,1.925888 4.094585,4.620506 4.590409,7.586701 0.499895,2.992737 -0.211461,5.904091 -2.003504,8.196911 -2.835136,3.628424 -7.316742,4.971259 -11.694753,3.506043 -0.199856,-0.06726 -0.40198,-0.131664 -0.605353,-0.182328 -0.215098,-0.05388 -0.467484,-0.116177 -0.554009,-0.137342 -0.616385,-0.08901 -10.745021,-1.512257 -10.743787,-1.512138 -1.024038,-0.143274 -1.839076,-0.836439 -2.18652,-1.74107 -0.162192,-0.421811 -0.222955,-0.88975 -0.155792,-1.368871 0.08309,-0.579271 0.317307,-1.12896 0.67741,-1.589086 0.73845,-0.944885 1.93167,-1.427247 3.11231,-1.258676 z m -4.932384,1.82094 c -0.188556,0.241151 -0.306121,0.518152 -0.349644,0.818346 -0.0862,0.619064 0.344938,1.191032 0.961575,1.276581 7.247168,1.018699 9.71694,1.366184 10.608924,1.523812 l -0.0014,-0.01094 c 0.135462,-0.01012 0.135462,-0.01012 0.859018,0.16971 0.24509,0.06135 0.487168,0.137508 0.727374,0.217557 3.764794,1.259862 7.466363,0.150925 9.902737,-2.966046 1.509083,-1.930647 2.106214,-4.392093 1.681583,-6.931178 -0.431235,-2.56604 -1.846026,-4.90136 -3.989482,-6.576246 L 66.720814,52.776621 c -0.30125,-0.235718 -0.675948,-0.339669 -1.054585,-0.29325 -0.378226,0.04646 -0.716472,0.238079 -0.952057,0.539676 -0.484821,0.620713 -0.376104,1.521727 0.245881,2.006257 l 6.514126,5.090636 c 0.35294,0.275424 0.41626,0.785531 0.140119,1.138154 -0.275596,0.353007 -0.785385,0.41561 -1.138392,0.140013 l -6.514258,-5.09098 -2.11564,-1.653515 c -0.301529,-0.235414 -0.676491,-0.340054 -1.0542,-0.293793 -0.378744,0.04666 -0.717334,0.23841 -0.952402,0.539807 -0.485378,0.621323 -0.374699,1.52178 0.245881,2.006257 l 8.629888,6.744507 c 0.353856,0.27626 0.415545,0.785212 0.14012,1.138153 -0.275597,0.353006 -0.785518,0.415266 -1.138393,0.140014 L 57.125386,56.651058 c -0.301596,-0.235585 -0.675775,-0.339735 -1.054518,-0.293076 -0.378295,0.04628 -0.716368,0.237835 -0.952084,0.53909 -0.235201,0.301053 -0.339218,0.675578 -0.29256,1.054321 0.04715,0.380532 0.238242,0.717399 0.538574,0.952283 l 1.96077,1.532339 c 1.99e-4,5.17e-4 7.16e-4,3.18e-4 8.49e-4,6.63e-4 l 1.99e-4,5.17e-4 8.629698,6.743978 c 0.35444,0.276234 0.416434,0.785466 0.140186,1.138327 -0.275662,0.352834 -0.785584,0.415093 -1.13822,0.139947 l -8.63007,-6.744429 c -0.301595,-0.235586 -0.676491,-0.340054 -1.054201,-0.293794 -0.414651,0.05057 -0.773739,0.271381 -1.011543,0.620745 -0.413774,0.606261 -0.243229,1.49716 0.379461,1.983003 l 13.194899,10.311972 c 0.288172,0.2259 0.39013,0.618219 0.247051,0.955506 -0.142987,0.338042 -0.495745,0.537223 -0.858561,0.486305 L 61.1319,74.922537 c -0.609554,-0.08669 -1.225267,0.162728 -1.607339,0.651692 z"
       fill="#103e13"
       id="path2"
       style="stroke-width:1.84759" />
    <path
       d="m 17.808911,77.283798 c 1.496729,2.496088 3.958082,4.204366 6.931402,4.811852 2.947083,0.60065 6.046408,0.04674 8.728733,-1.561764 l 14.37089,-8.620834 c 0.699312,-0.419587 1.19391,-1.085827 1.391971,-1.877147 0.196399,-0.789659 0.07353,-1.609802 -0.345313,-2.308559 -0.261618,-0.436769 -0.628179,-0.780974 -1.053309,-1.035387 l 0.0041,-0.0026 c 0.699311,-0.419587 1.19391,-1.085826 1.390862,-1.876039 0.198061,-0.790212 0.0752,-1.61091 -0.344205,-2.31059 -0.270117,-0.449333 -0.640373,-0.800929 -1.062916,-1.050168 0.613398,-0.421988 1.055341,-1.035017 1.237143,-1.762227 0.198062,-0.790767 0.07501,-1.61091 -0.34439,-2.309667 -0.419032,-0.699311 -1.085826,-1.193355 -1.876038,-1.391047 -0.246653,-0.06189 -0.497185,-0.09238 -0.744947,-0.09238 -0.486469,5.54e-4 -0.963885,0.123973 -1.402687,0.353443 -0.02679,-0.568133 -0.196028,-1.126288 -0.52804,-1.605182 -0.910674,-1.313819 -2.734796,-1.677423 -4.155589,-0.824763 l -11.768197,7.058886 1.516868,-2.73221 c 0.58199,-1.043147 0.560742,-2.32999 -0.05635,-3.35891 -0.300602,-0.500696 -0.730166,-0.916588 -1.24361,-1.204441 -0.421989,-0.23372 -0.879081,-0.34439 -1.330077,-0.34439 -0.968319,5.54e-4 -1.908925,0.511411 -2.409621,1.415989 -1.74486,3.144037 -5.037627,9.073493 -5.269314,9.487352 -0.04915,0.07169 -0.198061,0.284898 -0.325545,0.466146 -0.121201,0.172195 -0.25238,0.336815 -0.387993,0.500326 -2.938215,3.561776 -3.292767,8.226375 -0.923608,12.174296 z m 2.174977,-11.140756 c 0.161479,-0.19566 0.320002,-0.395199 0.464299,-0.600835 0.438616,-0.622636 0.449887,-0.638895 0.482958,-0.801852 0.51289,-0.848596 1.764075,-3.101357 5.203725,-9.297975 0.301526,-0.543929 0.987165,-0.742544 1.533127,-0.440834 0.268639,0.150209 0.484437,0.360095 0.641851,0.622637 0.318893,0.53155 0.331087,1.195942 0.02993,1.735252 l -2.984959,5.378506 c -0.178292,0.320926 -0.118985,0.721113 0.144666,0.97608 0.263096,0.255336 0.665315,0.300048 0.981068,0.112148 l 14.360544,-8.614922 c 0.676956,-0.40573 1.569155,-0.246837 1.987633,0.357508 0.24074,0.347346 0.317415,0.76176 0.216907,1.166566 -0.09257,0.369701 -0.324621,0.681389 -0.653122,0.878527 -0.0011,5.54e-4 -0.0015,0.0015 -0.0026,0.002 l -9.38943,5.632919 c -0.383928,0.230394 -0.50827,0.728133 -0.277692,1.112616 0.230579,0.383374 0.727764,0.508825 1.112616,0.277692 l 11.527469,-6.915111 c 0.327023,-0.196029 0.711875,-0.253859 1.081577,-0.160925 0.37081,0.09238 0.682498,0.324066 0.879081,0.652567 0.197138,0.327577 0.253858,0.71206 0.162588,1.081762 -0.09256,0.369701 -0.324621,0.681943 -0.652567,0.879081 l -2.243154,1.345227 -9.283748,5.569916 c -0.383929,0.230579 -0.508271,0.728318 -0.277877,1.112801 0.230579,0.383374 0.727764,0.508271 1.112801,0.277692 l 9.391277,-5.634397 c 0.675478,-0.406284 1.555113,-0.185867 1.961397,0.490534 0.196953,0.327946 0.253858,0.712429 0.162403,1.082131 -0.09238,0.369702 -0.324436,0.681574 -0.653122,0.879081 l -2.302461,1.381255 -7.088816,4.253142 c -0.383929,0.230579 -0.508456,0.728318 -0.277877,1.112801 0.230579,0.383374 0.727764,0.509379 1.112801,0.277692 l 7.088816,-4.253142 c 0.327023,-0.196029 0.710397,-0.253858 1.082131,-0.160925 0.369702,0.09238 0.682498,0.323882 0.879081,0.651459 0.196583,0.328131 0.253859,0.712983 0.162588,1.082316 -0.09256,0.369702 -0.324621,0.681389 -0.653122,0.879081 l -14.37089,8.620834 c -2.332023,1.399177 -5.021368,1.883614 -7.569743,1.363518 -2.521954,-0.514922 -4.605107,-1.955669 -5.86553,-4.057113 -2.036963,-3.39346 -1.743936,-7.246785 0.782452,-10.307495 z"
       fill="#103e13"
       id="path3"
       style="stroke-width:1.84759" />
  </g>
</svg>
